<svg width="29" height="29" viewBox="0 0 29 29" fill="none" xmlns="http://www.w3.org/2000/svg">
<path d="M22.7191 6.64136C21.6526 5.56641 20.3834 4.71371 18.9851 4.13263C17.5868 3.55155 16.0871 3.25364 14.5729 3.25615C13.0583 3.25378 11.5583 3.55174 10.1597 4.13281C8.76102 4.71387 7.49145 5.56649 6.42442 6.64136C1.93193 11.1327 1.93193 18.4435 6.42442 22.936C7.49147 24.0112 8.7612 24.864 10.1601 25.445C11.559 26.0261 13.0593 26.3239 14.574 26.3212C16.0882 26.3239 17.5878 26.0261 18.9861 25.4453C20.3844 24.8644 21.6536 24.0119 22.7202 22.9372C27.2127 18.4458 27.2127 11.135 22.7191 6.64136V6.64136ZM14.7803 5.57095H14.3666C14.4369 5.5698 14.5038 5.56058 14.574 5.56058C14.6443 5.56058 14.71 5.5698 14.7803 5.57095ZM21.765 20.5498H19.1806L17.7311 23.4487C16.72 23.8223 15.6508 24.0146 14.5729 24.0168C13.4929 24.0148 12.4218 23.8221 11.4089 23.4476L9.96288 20.5613H7.38767C6.4376 19.3801 5.79509 17.9819 5.51763 16.4917L7.65844 13.6365L6.25735 10.8331C6.70442 9.88207 7.31208 9.0152 8.05365 8.27059C9.09155 7.22906 10.3637 6.45114 11.7638 6.00188L14.5717 7.87538L17.3808 6.00303C18.7805 6.45261 20.0525 7.23004 21.091 8.27059C21.8317 9.01432 22.439 9.87997 22.8861 10.8297L21.485 13.6365L23.6259 16.4917C23.3497 17.9771 22.7104 19.3712 21.765 20.5498Z" fill="#23262D"/>
<path d="M10.5391 13.6365L12.2674 18.2453H16.8763L18.6046 13.6365L14.5718 10.7559L10.5391 13.6365Z" fill="#23262D"/>
</svg>
