<svg width="12" height="12" viewBox="0 0 12 12" fill="none" xmlns="http://www.w3.org/2000/svg">
<path d="M9.62002 4.69081L9.6249 4.68105C9.81299 5.2181 9.8851 5.78708 9.84127 6.34856L9.21167 5.50886L9.62002 4.69081ZM8.67572 8.88946H8.6775C8.67393 8.89306 8.67035 8.89665 8.66676 8.90024L8.66522 8.90179C8.35145 9.21795 7.98789 9.47949 7.58961 9.67626L7.98301 8.88946H8.67572ZM3.60785 8.89408L3.9989 9.67463C3.60162 9.47795 3.23891 9.21683 2.92579 8.90132L2.92579 8.90131L2.92431 8.89983C2.92239 8.89791 2.92048 8.896 2.91856 8.89408H3.60785ZM2.37877 5.50902L1.74971 6.34798C1.70587 5.78697 1.77778 5.21853 1.96543 4.68199L1.97065 4.69244L2.37877 5.50902ZM5.88638 1.96535C6.13238 1.97042 6.37691 1.99799 6.61698 2.04747L6.61306 2.05008L5.88169 2.53756L5.88638 1.96535ZM5.70556 1.96535L5.71025 2.53822L4.97817 2.04976L4.9747 2.04745C5.21485 1.99798 5.45948 1.97041 5.70556 1.96535Z" fill="#23262D" stroke="#23262D" stroke-width="1.10733"/>
<path d="M4.18042 5.56747L4.8725 7.41302H6.71805L7.41013 5.56747L5.79528 4.414L4.18042 5.56747Z" fill="#23262D"/>
</svg>
