<svg width="30" height="30" viewBox="0 0 30 30" fill="none" xmlns="http://www.w3.org/2000/svg">
<path d="M17.5 3.75V8.75C17.5 9.44036 18.0596 10 18.75 10H23.75" stroke="#4B465C" stroke-width="1.5" stroke-linecap="round" stroke-linejoin="round"/>
<path d="M17.5 3.75V8.75C17.5 9.44036 18.0596 10 18.75 10H23.75" stroke="white" stroke-opacity="0.2" stroke-width="1.5" stroke-linecap="round" stroke-linejoin="round"/>
<path fill-rule="evenodd" clip-rule="evenodd" d="M21.25 26.25H8.75C7.36929 26.25 6.25 25.1307 6.25 23.75V6.25C6.25 4.86929 7.36929 3.75 8.75 3.75H17.5L23.75 10V23.75C23.75 25.1307 22.6307 26.25 21.25 26.25Z" stroke="#4B465C" stroke-width="1.5" stroke-linecap="round" stroke-linejoin="round"/>
<path fill-rule="evenodd" clip-rule="evenodd" d="M21.25 26.25H8.75C7.36929 26.25 6.25 25.1307 6.25 23.75V6.25C6.25 4.86929 7.36929 3.75 8.75 3.75H17.5L23.75 10V23.75C23.75 25.1307 22.6307 26.25 21.25 26.25Z" stroke="white" stroke-opacity="0.2" stroke-width="1.5" stroke-linecap="round" stroke-linejoin="round"/>
<path d="M11.25 21.25V15" stroke="#4B465C" stroke-width="1.5" stroke-linecap="round" stroke-linejoin="round"/>
<path d="M11.25 21.25V15" stroke="white" stroke-opacity="0.2" stroke-width="1.5" stroke-linecap="round" stroke-linejoin="round"/>
<path d="M15 21.25V20" stroke="#4B465C" stroke-width="1.5" stroke-linecap="round" stroke-linejoin="round"/>
<path d="M15 21.25V20" stroke="white" stroke-opacity="0.2" stroke-width="1.5" stroke-linecap="round" stroke-linejoin="round"/>
<path d="M18.75 21.25V17.5" stroke="#4B465C" stroke-width="1.5" stroke-linecap="round" stroke-linejoin="round"/>
<path d="M18.75 21.25V17.5" stroke="white" stroke-opacity="0.2" stroke-width="1.5" stroke-linecap="round" stroke-linejoin="round"/>
</svg>
