<svg width="29" height="29" viewBox="0 0 29 29" fill="none" xmlns="http://www.w3.org/2000/svg">
<path d="M22.5756 6.41132C21.5091 5.33637 20.24 4.48366 18.8417 3.90259C17.4434 3.32151 15.9437 3.0236 14.4295 3.02611C12.9149 3.02374 11.4149 3.3217 10.0162 3.90276C8.61758 4.48383 7.34802 5.33645 6.28099 6.41132C1.7885 10.9027 1.7885 18.2135 6.28099 22.706C7.34804 23.7811 8.61777 24.6339 10.0167 25.215C11.4156 25.7961 12.9158 26.0939 14.4306 26.0912C15.9448 26.0938 17.4444 25.7961 18.8427 25.2152C20.241 24.6343 21.5102 23.7819 22.5768 22.7071C27.0693 18.2158 27.0693 10.905 22.5756 6.41132V6.41132ZM14.6369 5.34091H14.2232C14.2935 5.33976 14.3603 5.33054 14.4306 5.33054C14.5009 5.33054 14.5666 5.33976 14.6369 5.34091ZM21.6216 20.3197H19.0372L17.5877 23.2187C16.5765 23.5923 15.5074 23.7846 14.4295 23.7867C13.3495 23.7848 12.2784 23.5921 11.2655 23.2175L9.81944 20.3312H7.24424C6.29417 19.1501 5.65166 17.7518 5.37419 16.2616L7.51501 13.4064L6.11392 10.6031C6.56099 9.65203 7.16865 8.78516 7.91022 8.04055C8.94812 6.99902 10.2203 6.2211 11.6204 5.77184L14.4283 7.64534L17.2374 5.77299C18.6371 6.22257 19.9091 7 20.9475 8.04055C21.6883 8.78427 22.2956 9.64993 22.7427 10.5996L21.3416 13.4064L23.4824 16.2616C23.2062 17.7471 22.567 19.1411 21.6216 20.3197Z" fill="#23262D"/>
<path d="M10.3955 13.4064L12.1238 18.0153H16.7327L18.461 13.4064L14.4283 10.5259L10.3955 13.4064Z" fill="#23262D"/>
</svg>
