<svg width="26" height="25" viewBox="0 0 26 25" fill="none" xmlns="http://www.w3.org/2000/svg">
<path d="M20.3847 5.44238C19.4412 4.4914 18.3184 3.73704 17.0814 3.22298C15.8444 2.70892 14.5176 2.44536 13.178 2.44758C11.8381 2.44549 10.5111 2.70909 9.27378 3.22314C8.03642 3.73719 6.91328 4.49148 5.96931 5.44238C1.99493 9.41574 1.99493 15.8834 5.96931 19.8578C6.91329 20.8089 8.03659 21.5634 9.27415 22.0774C10.5117 22.5915 11.839 22.855 13.179 22.8526C14.5186 22.8549 15.8453 22.5915 17.0823 22.0776C18.3193 21.5638 19.4421 20.8096 20.3857 19.8588C24.3601 15.8854 24.3601 9.41778 20.3847 5.44238ZM13.3615 4.49542H12.9956C13.0577 4.4944 13.1169 4.48625 13.179 4.48625C13.2412 4.48625 13.2993 4.4944 13.3615 4.49542ZM19.5407 17.7467H17.2543L15.972 20.3114C15.0775 20.6419 14.1317 20.812 13.178 20.8139C12.2226 20.8122 11.275 20.6417 10.3789 20.3104L9.09968 17.7569H6.82147C5.98096 16.712 5.41256 15.475 5.16709 14.1566L7.06101 11.6307L5.8215 9.15071C6.21701 8.30934 6.7546 7.54245 7.41064 6.88372C8.32884 5.9623 9.45429 5.2741 10.6929 4.87665L13.177 6.53409L15.6621 4.87767C16.9004 5.2754 18.0257 5.96317 18.9444 6.88372C19.5997 7.54167 20.1369 8.30749 20.5325 9.14765L19.293 11.6307L21.1869 14.1566C20.9426 15.4708 20.377 16.7041 19.5407 17.7467Z" fill="#34363D"/>
<path d="M9.60938 11.6307L11.1384 15.7081H15.2157L16.7447 11.6307L13.177 9.0824L9.60938 11.6307Z" fill="#34363D"/>
</svg>
