<svg width="21" height="28" viewBox="0 0 21 28" fill="none" xmlns="http://www.w3.org/2000/svg">
<path d="M10.6474 27.7323C10.3501 27.7323 10.0799 27.5971 9.89072 27.381C8.9179 26.273 0.297607 16.4637 0.297607 11.0592C0.297607 5.35734 4.94554 0.709412 10.6474 0.709412C16.3492 0.709412 20.9971 5.35734 20.9971 11.0592C20.9971 16.4367 12.3768 26.273 11.404 27.381C11.2148 27.5971 10.9446 27.7323 10.6474 27.7323ZM10.6474 2.76315C6.0805 2.76315 2.35134 6.4923 2.35134 11.0592C2.35134 14.6262 7.78294 21.7332 10.6474 25.1381C13.5118 21.7602 18.9434 14.6262 18.9434 11.0592C18.9434 6.4923 15.2142 2.76315 10.6474 2.76315Z" fill="url(#paint0_linear_1_1202)"/>
<path d="M10.6474 16.3825C7.78295 16.3825 5.45898 14.0585 5.45898 11.1941C5.45898 8.3297 7.78295 6.00574 10.6474 6.00574C13.5118 6.00574 15.8358 8.3297 15.8358 11.1941C15.8358 14.0585 13.5118 16.3825 10.6474 16.3825ZM10.6474 8.05947C8.91791 8.05947 7.51272 9.46466 7.51272 11.1941C7.51272 12.9236 8.91791 14.3288 10.6474 14.3288C12.3768 14.3288 13.782 12.9236 13.782 11.1941C13.782 9.46466 12.3768 8.05947 10.6474 8.05947Z" fill="url(#paint1_linear_1_1202)"/>
<defs>
<linearGradient id="paint0_linear_1_1202" x1="10.6474" y1="0.709412" x2="10.6474" y2="27.7323" gradientUnits="userSpaceOnUse">
<stop stop-color="#B356C1"/>
<stop offset="1" stop-color="#9734A6"/>
</linearGradient>
<linearGradient id="paint1_linear_1_1202" x1="10.6474" y1="6.00574" x2="10.6474" y2="16.3825" gradientUnits="userSpaceOnUse">
<stop stop-color="#B356C1"/>
<stop offset="1" stop-color="#9734A6"/>
</linearGradient>
</defs>
</svg>
