<svg width="31" height="30" viewBox="0 0 31 30" fill="none" xmlns="http://www.w3.org/2000/svg">
<path d="M22.6847 7.50001V7.51251" stroke="#4B465C" stroke-width="1.5" stroke-linecap="round" stroke-linejoin="round"/>
<path d="M22.6847 7.50001V7.51251" stroke="white" stroke-opacity="0.2" stroke-width="1.5" stroke-linecap="round" stroke-linejoin="round"/>
<path d="M22.6847 16.25L18.3097 9.99996C17.1461 7.89686 17.6435 5.2634 19.4941 3.72966C21.3447 2.19591 24.0247 2.19591 25.8753 3.72966C27.7258 5.2634 28.2233 7.89686 27.0597 9.99996L22.6847 16.25" stroke="#4B465C" stroke-width="1.5" stroke-linecap="round" stroke-linejoin="round"/>
<path d="M22.6847 16.25L18.3097 9.99996C17.1461 7.89686 17.6435 5.2634 19.4941 3.72966C21.3447 2.19591 24.0247 2.19591 25.8753 3.72966C27.7258 5.2634 28.2233 7.89686 27.0597 9.99996L22.6847 16.25" stroke="white" stroke-opacity="0.2" stroke-width="1.5" stroke-linecap="round" stroke-linejoin="round"/>
<path d="M13.3097 5.9375L11.4347 5L3.93469 8.75V25L11.4347 21.25L18.9347 25L26.4347 21.25V18.75" stroke="#4B465C" stroke-width="1.5" stroke-linecap="round" stroke-linejoin="round"/>
<path d="M13.3097 5.9375L11.4347 5L3.93469 8.75V25L11.4347 21.25L18.9347 25L26.4347 21.25V18.75" stroke="white" stroke-opacity="0.2" stroke-width="1.5" stroke-linecap="round" stroke-linejoin="round"/>
<path d="M11.4347 5V21.25" stroke="#4B465C" stroke-width="1.5" stroke-linecap="round" stroke-linejoin="round"/>
<path d="M11.4347 5V21.25" stroke="white" stroke-opacity="0.2" stroke-width="1.5" stroke-linecap="round" stroke-linejoin="round"/>
<path d="M18.9347 18.75V25" stroke="#4B465C" stroke-width="1.5" stroke-linecap="round" stroke-linejoin="round"/>
<path d="M18.9347 18.75V25" stroke="white" stroke-opacity="0.2" stroke-width="1.5" stroke-linecap="round" stroke-linejoin="round"/>
</svg>
