<svg width="28" height="28" viewBox="0 0 28 28" fill="none" xmlns="http://www.w3.org/2000/svg">
<g clip-path="url(#clip0_1_1208)">
<path d="M14.7696 7.56179C16.0917 7.78874 17.3003 8.41417 18.2635 9.37475C19.2215 10.3327 19.8495 11.5413 20.0765 12.8661C20.1636 13.3886 20.6122 13.766 21.1426 13.766C21.2112 13.766 21.2719 13.758 21.3142 13.7501C21.3168 13.7501 21.3194 13.7501 21.3221 13.7475C21.6097 13.7 21.8604 13.5443 22.0267 13.3041C22.1929 13.0666 22.2563 12.7816 22.2061 12.4993C21.9053 10.7312 21.0714 9.12141 19.7915 7.84152C18.5063 6.56163 16.8939 5.72772 15.1285 5.42952H15.1258C14.5373 5.33187 13.9805 5.73036 13.8829 6.3162C13.7905 6.90733 14.1864 7.46415 14.7696 7.56179Z" fill="url(#paint0_linear_1_1208)"/>
<path d="M21.4224 16.6209C20.8312 16.006 20.1161 15.6814 19.3534 15.6814C18.5987 15.6814 17.8783 16.0007 17.2739 16.6077L15.7724 18.1093C15.7354 18.0908 15.6985 18.0723 15.6642 18.0538L15.5876 18.0169C15.4267 17.9351 15.2419 17.8427 15.0889 17.7477C13.5477 16.7687 12.1412 15.4861 10.7848 13.8236C10.2042 13.0926 9.79779 12.4725 9.49959 11.855C9.87696 11.4987 10.2279 11.1424 10.5578 10.8047C10.6317 10.7308 10.7056 10.6542 10.7821 10.5777C10.856 10.5012 10.9325 10.4246 11.0091 10.3481C11.6371 9.72004 11.9696 8.99169 11.967 8.24223C11.967 7.49541 11.6345 6.7697 11.0091 6.14691L9.54973 4.68757C9.46528 4.60312 9.38084 4.51867 9.29903 4.43423C9.21722 4.34978 9.13278 4.26533 9.05097 4.18353L8.93485 4.06477C8.64721 3.77185 8.34901 3.46837 8.04817 3.19128C7.46232 2.60807 6.75244 2.29932 6.00034 2.29932C5.25088 2.29932 4.53572 2.60807 3.92613 3.19128C3.92349 3.19392 3.92085 3.19392 3.92085 3.19656L2.09206 5.02271C1.34523 5.76954 0.920363 6.67997 0.827999 7.72764V7.73027C0.730358 8.97058 0.954669 10.2795 1.53524 11.8497C2.41401 14.2247 3.73348 16.4256 5.68367 18.7743C8.064 21.6112 10.922 23.849 14.1758 25.4244H14.1784C15.4319 26.0235 17.1156 26.7254 19.0156 26.8495C19.0183 26.8495 19.0209 26.8495 19.0236 26.8495H19.0368C19.1449 26.8547 19.2584 26.86 19.3772 26.86C20.7098 26.86 21.834 26.3771 22.7154 25.4244L22.7286 25.4112C22.7392 25.4007 22.7471 25.3928 22.755 25.3822C23.0189 25.0655 23.3224 24.7726 23.6628 24.4454C23.8977 24.2211 24.1378 23.9915 24.3701 23.7434C24.9691 23.118 25.2858 22.3896 25.2831 21.6375C25.2805 20.8828 24.9586 20.1624 24.3516 19.5554L21.4224 16.6209ZM21.1321 23.9757C20.6623 24.4771 20.124 24.7014 19.3904 24.7014C19.3218 24.7014 19.2452 24.6961 19.1661 24.6908C17.646 24.5932 16.2078 23.9915 15.1258 23.4769C12.1385 22.0387 9.5207 19.9908 7.34357 17.3888C5.56228 15.2434 4.36155 13.243 3.56723 11.1002C3.09222 9.8256 2.91277 8.83863 2.98666 7.90708C3.03416 7.36346 3.23736 6.93067 3.62529 6.54803L5.44088 4.73243C5.63089 4.55034 5.82617 4.4527 6.00826 4.4527C6.17979 4.4527 6.36188 4.5477 6.55452 4.73507C6.55716 4.73771 6.5598 4.74035 6.56244 4.74298C6.87647 5.03855 7.18259 5.34994 7.50718 5.67717L7.51774 5.68773C7.67344 5.8487 7.85288 6.03343 8.03497 6.21024L9.49167 7.66694C9.91654 8.09181 9.91654 8.39001 9.49167 8.81488C9.33861 8.96794 9.18291 9.12364 9.02986 9.28198L8.92166 9.39281C8.51262 9.80713 8.12733 10.1977 7.70774 10.5698C7.70246 10.5751 7.69455 10.5803 7.68927 10.5883L7.66288 10.6146C7.2169 11.0606 7.09551 11.5937 7.30398 12.1954C7.30926 12.2112 7.31454 12.2244 7.31982 12.2376C7.32245 12.2455 7.32509 12.2534 7.33037 12.2614C7.72094 13.2035 8.26984 14.0981 9.1143 15.1668C9.1143 15.1695 9.11694 15.1695 9.11694 15.1721C10.6159 17.0167 12.1966 18.4576 13.9515 19.5712C14.1811 19.7164 14.4186 19.8378 14.6403 19.9486C14.8039 20.0304 14.9886 20.1254 15.1417 20.2178C15.1522 20.2257 15.1628 20.231 15.1733 20.2363L15.1812 20.2415C15.1971 20.2495 15.2129 20.26 15.2314 20.2679C15.461 20.384 15.6879 20.4395 15.9228 20.4395C16.3239 20.4395 16.6934 20.2732 16.9916 19.9592L18.8177 18.133C18.9497 18.0011 19.1555 17.8427 19.3719 17.8427C19.5725 17.8427 19.7677 17.9984 19.8944 18.1304C19.8971 18.133 19.8971 18.133 19.8997 18.1357L22.8474 21.0834C23.1377 21.3736 23.3356 21.7167 22.8236 22.2551L22.821 22.2577C22.66 22.4319 22.4885 22.5981 22.3064 22.7749C22.2668 22.8119 22.2272 22.8515 22.1877 22.891C21.8182 23.2367 21.4646 23.5798 21.1321 23.9757Z" fill="url(#paint1_linear_1_1208)"/>
<path d="M26.7954 12.288C26.3098 9.43005 24.9587 6.82277 22.8871 4.75119C20.8076 2.67698 18.2003 1.32583 15.3397 0.842907C14.7512 0.745266 14.1944 1.14375 14.0968 1.72959C13.9991 2.31808 14.3976 2.8749 14.9808 2.97254C17.4007 3.38422 19.6042 4.52952 21.3565 6.27914C23.1088 8.03141 24.2514 10.2349 24.6631 12.6522C24.7502 13.1747 25.1988 13.5521 25.7292 13.5521C25.7319 13.5521 25.7345 13.5521 25.7372 13.5521C25.8031 13.5521 25.8586 13.5442 25.9008 13.5363C25.9034 13.5363 25.9061 13.5363 25.9087 13.5336C26.1963 13.4861 26.447 13.3304 26.6133 13.0903C26.7822 12.8554 26.8455 12.5704 26.7954 12.288Z" fill="url(#paint2_linear_1_1208)"/>
</g>
<defs>
<linearGradient id="paint0_linear_1_1208" x1="18.0462" y1="5.41479" x2="18.0462" y2="13.766" gradientUnits="userSpaceOnUse">
<stop stop-color="#B356C1"/>
<stop offset="1" stop-color="#9734A6"/>
</linearGradient>
<linearGradient id="paint1_linear_1_1208" x1="13.0445" y1="2.29932" x2="13.0445" y2="26.86" gradientUnits="userSpaceOnUse">
<stop stop-color="#B356C1"/>
<stop offset="1" stop-color="#9734A6"/>
</linearGradient>
<linearGradient id="paint2_linear_1_1208" x1="20.4471" y1="0.828186" x2="20.4471" y2="13.5521" gradientUnits="userSpaceOnUse">
<stop stop-color="#B356C1"/>
<stop offset="1" stop-color="#9734A6"/>
</linearGradient>
<clipPath id="clip0_1_1208">
<rect width="27.0228" height="27.0228" fill="white" transform="translate(0.297607 0.333313)"/>
</clipPath>
</defs>
</svg>
