<svg width="30" height="30" viewBox="0 0 30 30" fill="none" xmlns="http://www.w3.org/2000/svg">
<path fill-rule="evenodd" clip-rule="evenodd" d="M3.25473 7.25741L3.40512 7.08822C3.95628 6.51187 4.77738 6.22351 5.86767 6.22351H24.553C25.5805 6.22351 26.37 6.47428 26.9215 6.97543L26.9403 6.99423C27.0531 7.09462 27.1663 7.21342 27.2787 7.3514C27.2787 7.36418 27.2851 7.37659 27.2975 7.38899L27.3163 7.40779C27.7302 7.92173 27.9366 8.64847 27.9366 9.58837V20.2281C27.9242 22.4839 26.7963 23.6118 24.553 23.6118H5.86767C3.6243 23.5993 2.50281 22.4715 2.50281 20.2281V9.58837C2.50281 8.57327 2.75357 7.79616 3.25473 7.25741ZM25.1733 8.06572C24.9853 8.01572 24.7785 7.99655 24.5533 8.00933H5.86767C5.72969 7.99692 5.5981 8.00294 5.47291 8.02813L15.1539 17.8407L25.1733 8.06572ZM4.28863 9.38159C4.27622 9.44438 4.27622 9.51318 4.28863 9.58837V20.2281C4.28863 21.2936 4.81497 21.8259 5.86767 21.8259H24.553C25.6181 21.8259 26.1508 21.2936 26.1508 20.2281V9.60717L15.7743 19.7393C15.5863 19.9149 15.3735 20.0025 15.1355 20.0025C14.8847 19.9901 14.6716 19.9021 14.4964 19.7393L4.28863 9.38159Z" fill="url(#paint0_linear_1_1214)"/>
<path fill-rule="evenodd" clip-rule="evenodd" d="M3.25476 7.25707C3.27995 7.21948 3.31115 7.18188 3.34875 7.14428C3.36153 7.1191 3.37995 7.1003 3.40514 7.08789L3.25476 7.25707Z" fill="url(#paint1_linear_1_1214)"/>
<defs>
<linearGradient id="paint0_linear_1_1214" x1="15.2197" y1="6.22351" x2="15.2197" y2="23.6118" gradientUnits="userSpaceOnUse">
<stop stop-color="#B356C1"/>
<stop offset="1" stop-color="#9734A6"/>
</linearGradient>
<linearGradient id="paint1_linear_1_1214" x1="3.32995" y1="7.08789" x2="3.32995" y2="7.25707" gradientUnits="userSpaceOnUse">
<stop stop-color="#B356C1"/>
<stop offset="1" stop-color="#9734A6"/>
</linearGradient>
</defs>
</svg>
