<svg width="22" height="16" viewBox="0 0 22 16" fill="none" xmlns="http://www.w3.org/2000/svg">
<g clip-path="url(#clip0_11_85)">
<path d="M14.3356 2.30774C14.3356 3.44999 13.0667 4.37863 11.5045 4.37863C9.94101 4.37863 8.67276 3.45046 8.67276 2.30774C8.67276 1.16407 9.94101 0.235901 11.5045 0.235901C13.068 0.235901 14.3356 1.16407 14.3356 2.30774V2.30774ZM11.5064 12.9505C10.6361 12.9495 9.92818 13.4646 9.92561 14.1026C9.92368 14.7416 10.6271 15.2594 11.4987 15.2603C12.3716 15.2622 13.0795 14.7472 13.0808 14.1092C13.084 13.4702 12.3787 12.9524 11.5064 12.951V12.9505ZM20.5986 8.20634C20.5986 7.79038 20.1377 7.45235 19.5678 7.45235C18.9978 7.45235 18.5357 7.7885 18.5357 8.20634C18.5357 8.62137 18.9959 8.96127 19.5678 8.96127C20.1364 8.9608 20.5986 8.62277 20.5986 8.20634ZM5.24155 8.20634C5.24155 7.47817 4.43542 6.88803 3.4393 6.88803C2.44319 6.88803 1.6377 7.47817 1.6377 8.20634C1.6377 8.93404 2.44319 9.52419 3.4393 9.52419C4.43542 9.52419 5.24155 8.93404 5.24155 8.20634ZM17.7796 3.61384C17.4632 3.38145 16.951 3.38239 16.6333 3.61384C16.3163 3.84624 16.3163 4.2237 16.6333 4.45516C16.951 4.68755 17.4626 4.68755 17.7796 4.45516C18.0967 4.22277 18.0961 3.84624 17.7796 3.61384ZM7.1112 11.4228C6.38786 10.8965 5.21524 10.8965 4.49254 11.4218C3.76985 11.9481 3.7692 12.8054 4.49254 13.3326C5.21588 13.8599 6.38786 13.8608 7.10991 13.3326C7.83454 12.8068 7.83454 11.95 7.1112 11.4228V11.4228ZM17.9613 12.928C18.3746 12.6237 18.3746 12.1312 17.96 11.8275C17.5467 11.5251 16.876 11.5251 16.4626 11.8294C16.0493 12.1326 16.0493 12.6251 16.4626 12.9294C16.8779 13.2322 17.5473 13.2322 17.9613 12.928ZM7.15805 5.02558C7.90385 4.47957 7.90385 3.59272 7.15805 3.0453C6.41225 2.49929 5.20176 2.49929 4.45467 3.0453C3.70887 3.59131 3.70887 4.47816 4.45532 5.02558C5.20176 5.573 6.41161 5.57253 7.15805 5.02558V5.02558Z" fill="#17191C"/>
</g>
<defs>
<clipPath id="clip0_11_85">
<rect width="20.5385" height="15.0235" fill="white" transform="translate(0.848877 0.235901)"/>
</clipPath>
</defs>
</svg>
